<svg width="200" height="185" viewBox="0 0 200 185" fill="none" xmlns="http://www.w3.org/2000/svg">
<g clip-path="url(#clip0_25_1101)">
<path d="M195.191 170.255C194.114 171.19 192.75 171.766 191.243 171.838C173.224 172.558 156.211 165.143 144.366 151.465C132.593 137.859 127.639 119.79 130.941 102.081C131.588 98.5533 134.962 96.2497 138.479 96.8976C141.997 97.5455 144.294 100.929 143.648 104.456C141.135 118.35 144.94 132.388 154.129 143.043C163.318 153.697 176.67 159.456 190.74 158.952C194.33 158.808 197.345 161.616 197.417 165.143C197.488 167.159 196.627 169.031 195.191 170.255Z" fill="url(#paint0_linear_25_1101)"/>
<path d="M2.22567 170.255C3.30248 171.19 4.66644 171.766 6.17398 171.838C24.1926 172.558 41.2063 165.143 53.0512 151.465C64.8244 137.859 69.7777 119.79 66.4755 102.081C65.8294 98.5533 62.4554 96.2497 58.9378 96.8976C55.4202 97.5455 53.123 100.929 53.7691 104.456C56.2817 118.35 52.4769 132.388 43.2881 143.043C34.0993 153.697 20.7468 159.456 6.67649 158.952C3.08712 158.808 0.0720435 161.616 0.000255989 165.143C-0.0715315 167.159 0.789918 169.031 2.22567 170.255Z" fill="url(#paint1_linear_25_1101)"/>
<path d="M126.777 -6.10352e-05L69.7781 23.6844C69.0602 23.6844 68.6295 24.4043 68.9884 24.9802L74.3725 35.1307C74.6596 35.7066 75.5211 35.7786 75.88 35.2027L127.495 1.29575C127.854 0.79182 127.495 -6.10352e-05 126.777 -6.10352e-05Z" fill="#001C85"/>
<path d="M186.433 67.2378C186.433 67.5978 186.433 67.9577 186.433 68.3177C186.362 70.8373 186.074 73.3569 185.213 75.8046C184.639 77.4603 183.849 79.0441 182.772 80.4119C180.906 82.7875 178.465 84.2993 175.593 85.2351C173.009 86.027 170.353 86.315 167.625 86.315C167.553 86.315 167.553 86.315 167.41 86.315C167.481 85.3071 167.481 84.2993 167.553 83.2914C167.769 80.8438 168.271 78.5401 169.276 76.3085C170.138 74.3648 171.358 72.709 172.937 71.3412C174.804 69.7575 176.957 68.7496 179.326 68.1017C181.624 67.5258 183.921 67.3098 186.218 67.3098C186.29 67.2378 186.362 67.2378 186.433 67.2378Z" fill="#001C85" stroke="white" stroke-width="1.86211" stroke-miterlimit="10" stroke-linecap="round"/>
<path d="M200 86.9629C199.713 87.2508 199.354 87.5388 199.067 87.8987C196.698 90.1304 194.185 92.0741 191.314 93.5139C189.304 94.5217 187.222 95.1696 185.068 95.3856C181.263 95.8175 177.746 95.0256 174.372 93.2259C171.357 91.6422 168.701 89.4825 166.332 87.1068C166.26 87.0348 166.26 87.0348 166.188 86.8909C167.121 86.027 168.054 85.1631 168.988 84.3712C171.285 82.3555 173.869 80.6998 176.741 79.62C179.253 78.6841 181.838 78.2522 184.494 78.4681C187.581 78.6841 190.38 79.7639 193.037 81.3477C195.549 82.8595 197.846 84.7312 199.928 86.8189C199.856 86.7469 199.928 86.8189 200 86.9629Z" fill="#001C85"/>
<path d="M183.059 105.392C183.059 138.723 145.298 165.791 98.7083 165.791C52.1181 165.791 14.3579 138.723 14.3579 105.392C14.3579 98.9131 15.7937 92.722 18.378 86.8909C29.2897 62.6305 61.1634 44.9931 98.7083 44.9931C136.253 44.9931 168.127 62.5585 179.038 86.8909C181.623 92.722 183.059 98.985 183.059 105.392Z" fill="url(#paint2_linear_25_1101)"/>
<path d="M179.039 86.8909H18.3784C29.2901 62.6305 61.1638 44.9931 98.7086 44.9931C136.254 44.9931 168.127 62.6305 179.039 86.8909Z" fill="#001C85"/>
<path opacity="0.4" d="M124.695 142.827C142.814 142.827 157.502 129.451 157.502 112.951C157.502 96.4513 142.814 83.0756 124.695 83.0756C106.576 83.0756 91.8882 96.4513 91.8882 112.951C91.8882 129.451 106.576 142.827 124.695 142.827Z" fill="url(#paint3_radial_25_1101)"/>
<path opacity="0.4" d="M72.7214 142.827C90.8402 142.827 105.528 129.451 105.528 112.951C105.528 96.4513 90.8402 83.0756 72.7214 83.0756C54.6027 83.0756 39.9146 96.4513 39.9146 112.951C39.9146 129.451 54.6027 142.827 72.7214 142.827Z" fill="url(#paint4_radial_25_1101)"/>
<path d="M160.733 87.035C159.584 88.1868 158.364 89.2667 157.215 90.3465C148.673 98.4093 139.484 105.608 128.859 110.791C121.609 114.391 113.927 116.839 105.887 117.702C92.0322 119.214 78.9669 116.335 66.6913 109.856C55.636 104.024 46.0165 96.2496 37.2584 87.3949C37.1148 87.251 37.043 87.107 36.6841 86.675C40.2017 83.5075 43.5039 80.34 47.0215 77.3164C55.5642 70.1175 64.8248 64.0704 75.3775 60.039C84.4946 56.5836 93.9705 55.1438 103.662 55.8637C114.932 56.7275 125.342 60.543 134.961 66.3021C144.222 71.8453 152.477 78.6842 160.087 86.3151C160.302 86.4591 160.446 86.675 160.733 87.035Z" fill="white"/>
<path d="M98.7083 109.783C111.316 109.783 121.537 99.5338 121.537 86.8906C121.537 74.2474 111.316 63.998 98.7083 63.998C86.1005 63.998 75.8799 74.2474 75.8799 86.8906C75.8799 99.5338 86.1005 109.783 98.7083 109.783Z" fill="#001C85"/>
<path d="M105.528 125.045C105.528 125.045 102.728 128.716 99.2104 128.716C95.6928 128.716 92.8931 125.045 92.8931 125.045" stroke="#001C85" stroke-width="2.36454" stroke-miterlimit="10" stroke-linecap="round"/>
</g>
<defs>
<linearGradient id="paint0_linear_25_1101" x1="180.292" y1="75.7219" x2="119.286" y2="293.589" gradientUnits="userSpaceOnUse">
<stop stop-color="#2942D6"/>
<stop offset="1" stop-color="#43EFCE"/>
</linearGradient>
<linearGradient id="paint1_linear_25_1101" x1="16.8488" y1="75.4225" x2="77.8549" y2="293.289" gradientUnits="userSpaceOnUse">
<stop stop-color="#2942D6"/>
<stop offset="1" stop-color="#43EFCE"/>
</linearGradient>
<linearGradient id="paint2_linear_25_1101" x1="139.142" y1="168.364" x2="49.0856" y2="28.903" gradientUnits="userSpaceOnUse">
<stop stop-color="#2942D6"/>
<stop offset="1" stop-color="#43EFCE"/>
</linearGradient>
<radialGradient id="paint3_radial_25_1101" cx="0" cy="0" r="1" gradientUnits="userSpaceOnUse" gradientTransform="translate(124.756 112.974) scale(32.7986 29.871)">
<stop stop-color="#FFBDE4"/>
<stop offset="1" stop-color="#FFBDE4" stop-opacity="0"/>
</radialGradient>
<radialGradient id="paint4_radial_25_1101" cx="0" cy="0" r="1" gradientUnits="userSpaceOnUse" gradientTransform="translate(72.7434 112.974) scale(32.7986 29.871)">
<stop stop-color="#FFBDE4"/>
<stop offset="1" stop-color="#FFBDE4" stop-opacity="0"/>
</radialGradient>
<clipPath id="clip0_25_1101">
<rect width="200" height="185" fill="white"/>
</clipPath>
</defs>
</svg>
