<svg width="30" height="30" viewBox="0 0 30 30" fill="none" xmlns="http://www.w3.org/2000/svg">
<g clip-path="url(#clip0_54_992)">
<path d="M0.0942711 6.09033C1.66325 10.602 4.9662 15.7264 9.61927 20.3795C14.2723 25.0325 19.3968 28.3355 23.9084 29.9045C24.5212 30.1166 25.198 29.9651 25.6592 29.5072L28.7804 26.386L29.5076 25.6588C30.1642 25.0022 30.1642 23.9349 29.5076 23.2784L24.6761 18.4502C24.0196 17.7937 22.9522 17.7937 22.2957 18.4502L20.986 19.76C20.3059 20.4401 19.2217 20.5074 18.4608 19.9148C16.9558 18.7432 15.4643 17.4267 14.0199 15.9823C12.5755 14.5379 11.259 13.0463 10.0873 11.5413C9.49469 10.7804 9.56203 9.69963 10.2422 9.01614L11.5519 7.70641C12.2085 7.04987 12.2085 5.98255 11.5519 5.32601L6.72039 0.494486C6.06384 -0.162062 4.99653 -0.162062 4.33998 0.494486L3.61273 1.22174L0.491601 4.34287C0.0336667 4.8008 -0.117844 5.47755 0.0942711 6.09033Z" fill="white"/>
</g>
<defs>
<clipPath id="clip0_54_992">
<rect width="30" height="30" fill="white"/>
</clipPath>
</defs>
</svg>
