<svg width="290" height="308" viewBox="0 0 290 308" fill="none" xmlns="http://www.w3.org/2000/svg">
<g clip-path="url(#clip0_9_418)">
<path d="M283.027 246.839C281.466 248.195 279.488 249.03 277.302 249.135C251.175 250.178 226.505 239.428 209.33 219.598C192.259 199.871 185.076 173.674 189.865 147.999C190.802 142.885 195.694 139.545 200.794 140.484C205.895 141.423 209.226 146.329 208.289 151.443C204.646 171.587 210.163 191.939 223.486 207.386C236.81 222.833 256.171 231.183 276.573 230.452C281.778 230.243 286.15 234.314 286.254 239.428C286.358 242.351 285.109 245.064 283.027 246.839Z" fill="url(#paint0_linear_9_418)"/>
<path d="M3.22727 246.839C4.78865 248.195 6.76639 249.03 8.95232 249.135C35.0794 250.178 59.7492 239.428 76.9243 219.598C93.9954 199.871 101.178 173.674 96.3895 147.999C95.4527 142.885 90.5603 139.545 85.4598 140.484C80.3593 141.423 77.0284 146.329 77.9652 151.443C81.6085 171.587 76.0916 191.939 62.7678 207.386C49.4441 222.833 30.083 231.183 9.68096 230.452C4.47637 230.243 0.104512 234.314 0.000420012 239.428C-0.103672 242.351 1.14543 245.064 3.22727 246.839Z" fill="url(#paint1_linear_9_418)"/>
<path d="M183.827 -7.43866e-05L101.178 34.3381C100.137 34.3381 99.5123 35.3818 100.033 36.2168L107.84 50.9332C108.256 51.7681 109.505 51.8725 110.026 51.0375L184.868 1.87861C185.388 1.14801 184.868 -7.43866e-05 183.827 -7.43866e-05Z" fill="#2A3067"/>
<path d="M270.327 97.4828C270.327 98.0046 270.327 98.5265 270.327 99.0483C270.223 102.701 269.807 106.354 268.558 109.903C267.725 112.303 266.58 114.6 265.019 116.583C262.312 120.027 258.773 122.219 254.61 123.576C250.862 124.724 247.011 125.141 243.055 125.141C242.951 125.141 242.951 125.141 242.743 125.141C242.847 123.68 242.847 122.219 242.951 120.758C243.263 117.209 243.992 113.869 245.449 110.634C246.699 107.816 248.468 105.415 250.758 103.432C253.465 101.136 256.587 99.6746 260.022 98.7352C263.353 97.9002 266.684 97.5871 270.015 97.5871C270.119 97.4828 270.223 97.4828 270.327 97.4828Z" fill="#2A3067" stroke="white" stroke-width="2.67553" stroke-miterlimit="10" stroke-linecap="round"/>
<path d="M290 126.08C289.583 126.498 289.063 126.915 288.647 127.437C285.212 130.673 281.568 133.491 277.405 135.578C274.49 137.039 271.471 137.979 268.349 138.292C262.832 138.918 257.731 137.77 252.839 135.161C248.467 132.865 244.616 129.733 241.181 126.289C241.077 126.185 241.077 126.185 240.973 125.976C242.326 124.724 243.679 123.471 245.032 122.323C248.363 119.401 252.11 117 256.274 115.435C259.917 114.078 263.665 113.452 267.516 113.765C271.992 114.078 276.051 115.643 279.903 117.939C283.546 120.131 286.877 122.845 289.896 125.872C289.792 125.767 289.896 125.872 290 126.08Z" fill="#2A3067"/>
<path d="M143.128 308C181.357 308 212.349 304.916 212.349 301.111C212.349 297.307 181.357 294.223 143.128 294.223C104.898 294.223 73.9065 297.307 73.9065 301.111C73.9065 304.916 104.898 308 143.128 308Z" fill="#EDF0F9"/>
<path d="M265.435 152.799C265.435 201.123 210.682 240.367 143.127 240.367C75.5712 240.367 20.8188 201.123 20.8188 152.799C20.8188 143.406 22.9007 134.43 26.648 125.976C42.47 90.8029 88.6868 65.2319 143.127 65.2319C197.567 65.2319 243.784 90.6985 259.606 125.976C263.353 134.43 265.435 143.51 265.435 152.799Z" fill="url(#paint2_linear_9_418)"/>
<path d="M259.606 125.976H26.6479C42.4699 90.8029 88.6867 65.2319 143.127 65.2319C197.567 65.2319 243.784 90.8029 259.606 125.976Z" fill="#2A3067"/>
<path opacity="0.4" d="M180.808 207.073C207.08 207.073 228.378 187.68 228.378 163.759C228.378 139.837 207.08 120.445 180.808 120.445C154.535 120.445 133.238 139.837 133.238 163.759C133.238 187.68 154.535 207.073 180.808 207.073Z" fill="url(#paint3_radial_9_418)"/>
<path opacity="0.4" d="M105.445 207.073C131.718 207.073 153.015 187.68 153.015 163.759C153.015 139.837 131.718 120.445 105.445 120.445C79.1733 120.445 57.8755 139.837 57.8755 163.759C57.8755 187.68 79.1733 207.073 105.445 207.073Z" fill="url(#paint4_radial_9_418)"/>
<path d="M233.063 126.185C231.397 127.855 229.628 129.421 227.962 130.986C215.575 142.676 202.251 153.113 186.846 160.628C176.332 165.846 165.195 169.395 153.536 170.647C133.447 172.839 114.502 168.664 96.7022 159.271C80.672 150.817 66.7237 139.545 54.0245 126.707C53.8163 126.498 53.7122 126.289 53.1918 125.663C58.2923 121.071 63.0805 116.479 68.181 112.095C80.5679 101.658 93.9958 92.8906 109.297 87.0458C122.517 82.036 136.257 79.9485 150.309 80.9922C166.652 82.2447 181.745 87.7764 195.694 96.1261C209.121 104.163 221.092 114.078 232.126 125.141C232.438 125.35 232.646 125.663 233.063 126.185Z" fill="white"/>
<path d="M143.127 159.166C161.408 159.166 176.228 144.306 176.228 125.976C176.228 107.645 161.408 92.7856 143.127 92.7856C124.845 92.7856 110.026 107.645 110.026 125.976C110.026 144.306 124.845 159.166 143.127 159.166Z" fill="#2A3067"/>
<path d="M153.015 181.293C153.015 181.293 148.955 186.616 143.855 186.616C138.754 186.616 134.695 181.293 134.695 181.293" stroke="#2A3067" stroke-width="3.39744" stroke-miterlimit="10" stroke-linecap="round"/>
</g>
<defs>
<linearGradient id="paint0_linear_9_418" x1="261.423" y1="109.783" x2="172.984" y2="425.656" gradientUnits="userSpaceOnUse">
<stop stop-color="#2942D6"/>
<stop offset="1" stop-color="#43EFCE"/>
</linearGradient>
<linearGradient id="paint1_linear_9_418" x1="24.4308" y1="109.349" x2="112.869" y2="425.222" gradientUnits="userSpaceOnUse">
<stop stop-color="#2942D6"/>
<stop offset="1" stop-color="#43EFCE"/>
</linearGradient>
<linearGradient id="paint2_linear_9_418" x1="201.756" y1="244.097" x2="71.1968" y2="41.8893" gradientUnits="userSpaceOnUse">
<stop stop-color="#2942D6"/>
<stop offset="1" stop-color="#43EFCE"/>
</linearGradient>
<radialGradient id="paint3_radial_9_418" cx="0" cy="0" r="1" gradientUnits="userSpaceOnUse" gradientTransform="translate(180.896 163.792) scale(47.5579 43.3076)">
<stop stop-color="#FFBDE4"/>
<stop offset="1" stop-color="#FFBDE4" stop-opacity="0"/>
</radialGradient>
<radialGradient id="paint4_radial_9_418" cx="0" cy="0" r="1" gradientUnits="userSpaceOnUse" gradientTransform="translate(105.477 163.792) scale(47.558 43.3076)">
<stop stop-color="#FFBDE4"/>
<stop offset="1" stop-color="#FFBDE4" stop-opacity="0"/>
</radialGradient>
<clipPath id="clip0_9_418">
<rect width="290" height="308" fill="white"/>
</clipPath>
</defs>
</svg>
